<svg width="34" height="34" viewBox="0 0 34 34" fill="none" xmlns="http://www.w3.org/2000/svg">
<circle cx="17.0072" cy="17.0023" r="17.0023" fill="#E2E2E2"/>
<path d="M19.8062 12.8038C19.8062 12.6182 19.88 12.4402 20.0112 12.309C20.1424 12.1778 20.3204 12.1041 20.506 12.1041H26.1039C26.2895 12.1041 26.4675 12.1778 26.5987 12.309C26.7299 12.4402 26.8037 12.6182 26.8037 12.8038C26.8037 12.9894 26.7299 13.1674 26.5987 13.2986C26.4675 13.4298 26.2895 13.5036 26.1039 13.5036H20.506C20.3204 13.5036 20.1424 13.4298 20.0112 13.2986C19.88 13.1674 19.8062 12.9894 19.8062 12.8038ZM17.707 19.6263C17.707 20.6006 17.32 21.535 16.631 22.2239C15.9421 22.9129 15.0077 23.2999 14.0334 23.2999H8.61039C8.4248 23.2999 8.24682 23.2262 8.11559 23.095C7.98437 22.9638 7.91064 22.7858 7.91064 22.6002V11.4043C7.91064 11.2187 7.98437 11.0408 8.11559 10.9095C8.24682 10.7783 8.4248 10.7046 8.61039 10.7046H13.6835C14.3528 10.7053 15.0062 10.908 15.5583 11.2862C16.1105 11.6645 16.5356 12.2005 16.778 12.8243C17.0204 13.4481 17.0689 14.1306 16.9171 14.7824C16.7652 15.4342 16.4202 16.025 15.9271 16.4775C16.4702 16.8042 16.9195 17.2659 17.2314 17.8176C17.5433 18.3694 17.7072 18.9925 17.707 19.6263ZM9.31013 15.9526H13.6835C14.1939 15.9526 14.6833 15.7499 15.0442 15.389C15.4051 15.0282 15.6078 14.5387 15.6078 14.0284C15.6078 13.518 15.4051 13.0286 15.0442 12.6677C14.6833 12.3068 14.1939 12.1041 13.6835 12.1041H9.31013V15.9526ZM16.3075 19.6263C16.3075 19.3276 16.2487 19.0319 16.1344 18.756C16.0201 18.4801 15.8526 18.2294 15.6415 18.0182C15.4303 17.807 15.1796 17.6395 14.9037 17.5252C14.6277 17.411 14.332 17.3521 14.0334 17.3521H9.31013V21.9004H14.0334C14.332 21.9004 14.6277 21.8416 14.9037 21.7273C15.1796 21.6131 15.4303 21.4455 15.6415 21.2344C15.8526 21.0232 16.0201 20.7725 16.1344 20.4966C16.2487 20.2207 16.3075 19.9249 16.3075 19.6263ZM27.5034 19.1015C27.5034 19.2871 27.4297 19.465 27.2985 19.5963C27.1672 19.7275 26.9892 19.8012 26.8037 19.8012H20.5935C20.7252 20.3118 20.9985 20.7748 21.3818 21.1369C21.7652 21.4989 22.243 21.7453 22.7603 21.8477C23.2775 21.9501 23.8132 21.9043 24.3056 21.7155C24.7979 21.5268 25.227 21.2028 25.5432 20.7809C25.5984 20.7073 25.6676 20.6454 25.7467 20.5986C25.8258 20.5518 25.9134 20.5211 26.0044 20.5081C26.0954 20.4952 26.1881 20.5003 26.2771 20.5231C26.3661 20.546 26.4498 20.5862 26.5233 20.6414C26.5968 20.6965 26.6588 20.7657 26.7056 20.8448C26.7524 20.9239 26.7831 21.0115 26.7961 21.1025C26.809 21.1935 26.8039 21.2862 26.7811 21.3752C26.7582 21.4643 26.718 21.5479 26.6628 21.6214C26.0644 22.4187 25.2019 22.9771 24.2295 23.1966C23.2571 23.4161 22.2383 23.2824 21.3554 22.8195C20.4725 22.3566 19.7831 21.5947 19.4106 20.67C19.0381 19.7454 19.0068 18.7183 19.3222 17.7727C19.6377 16.827 20.2793 16.0245 21.1323 15.5086C21.9853 14.9928 22.9941 14.7972 23.978 14.9571C24.962 15.1169 25.857 15.6216 26.5029 16.3809C27.1488 17.1402 27.5035 18.1046 27.5034 19.1015ZM26.0164 18.4017C25.8623 17.7997 25.5121 17.266 25.0212 16.885C24.5303 16.5039 23.9264 16.297 23.305 16.297C22.6835 16.297 22.0796 16.5039 21.5887 16.885C21.0978 17.266 20.7476 17.7997 20.5935 18.4017H26.0164Z" fill="#8020BB"/>
</svg>
