<svg width="35" height="34" viewBox="0 0 35 34" fill="none" xmlns="http://www.w3.org/2000/svg">
<circle cx="17.0116" cy="17.0023" r="17.0023" fill="#E2E2E2"/>
<path d="M17.0117 7.90564C15.2125 7.90564 13.4538 8.43915 11.9579 9.4387C10.4619 10.4383 9.29599 11.859 8.60748 13.5211C7.91898 15.1833 7.73884 17.0124 8.08983 18.7769C8.44083 20.5415 9.3072 22.1624 10.5794 23.4346C11.8516 24.7068 13.4724 25.5731 15.237 25.9241C17.0016 26.2751 18.8306 26.095 20.4928 25.4065C22.155 24.718 23.5757 23.552 24.5753 22.0561C25.5748 20.5602 26.1083 18.8014 26.1083 17.0023C26.1058 14.5905 25.1466 12.2782 23.4412 10.5728C21.7358 8.8674 19.4235 7.90819 17.0117 7.90564ZM24.6782 16.3183C24.4555 16.3078 24.2324 16.3025 24.0091 16.3025C22.7111 16.3029 21.4188 16.4747 20.1658 16.8133C19.8603 15.9068 19.4662 15.0326 18.9893 14.2033C20.2331 13.4533 21.359 12.5234 22.3306 11.4437C23.6787 12.7299 24.5131 14.4624 24.6782 16.3183ZM21.2346 10.5699C20.3606 11.5303 19.3504 12.3572 18.2362 13.0242C17.3031 11.7108 16.1618 10.5586 14.8574 9.61301C15.9275 9.30062 17.0526 9.22439 18.1551 9.38961C19.2576 9.55483 20.311 9.95754 21.2425 10.5699H21.2346ZM13.3074 10.2568C14.7372 11.1572 15.9836 12.3199 16.9811 13.6838C15.2354 14.4883 13.3359 14.9043 11.4137 14.9031C10.8205 14.9027 10.2279 14.8633 9.63991 14.785C10.225 12.855 11.5411 11.2301 13.3074 10.2568ZM9.31453 17.0023C9.31449 16.7206 9.32997 16.4391 9.36088 16.1591C10.041 16.2546 10.727 16.3025 11.4137 16.3025C13.6088 16.3046 15.7763 15.8144 17.7569 14.8681C18.1932 15.6216 18.5539 16.4165 18.8336 17.2411C18.0903 17.5203 17.371 17.8596 16.6828 18.2557C14.7629 19.3648 13.1168 20.8911 11.866 22.7218C11.0627 22.0012 10.4203 21.1194 9.98072 20.1339C9.5411 19.1484 9.3141 18.0814 9.31453 17.0023ZM12.9882 23.5623C14.1238 21.8827 15.6265 20.4832 17.3825 19.4697C17.9696 19.1309 18.5823 18.8385 19.215 18.5951C19.4315 19.5559 19.5409 20.5377 19.5412 21.5226C19.5417 22.4801 19.4394 23.4349 19.236 24.3706C18.1965 24.6846 17.1024 24.7749 16.0255 24.6356C14.9486 24.4963 13.9135 24.1305 12.9882 23.5623ZM20.778 23.7137C20.886 22.9898 20.9404 22.2589 20.9407 21.527C20.9406 20.3941 20.81 19.2651 20.5515 18.1621C21.6789 17.8579 22.8414 17.7032 24.0091 17.702C24.2307 17.702 24.4526 17.7076 24.6747 17.7186C24.5576 18.9582 24.1419 20.1509 23.4633 21.1948C22.7847 22.2387 21.8633 23.1026 20.778 23.7128V23.7137Z" fill="#8020BB"/>
</svg>
