<svg width="34" height="34" viewBox="0 0 34 34" fill="none" xmlns="http://www.w3.org/2000/svg">
<circle cx="17.0023" cy="17.0023" r="17.0023" fill="#E2E2E2"/>
<path d="M12.0644 14.596V24.2209C12.0644 24.54 11.9377 24.846 11.712 25.0716C11.4864 25.2972 11.1804 25.424 10.8613 25.424C10.5422 25.424 10.2362 25.2972 10.0106 25.0716C9.78495 24.846 9.6582 24.54 9.6582 24.2209V14.596C9.6582 14.2769 9.78495 13.9709 10.0106 13.7453C10.2362 13.5196 10.5422 13.3929 10.8613 13.3929C11.1804 13.3929 11.4864 13.5196 11.712 13.7453C11.9377 13.9709 12.0644 14.2769 12.0644 14.596ZM25.2986 18.8069V24.2209C25.2986 24.54 25.1719 24.846 24.9462 25.0716C24.7206 25.2972 24.4146 25.424 24.0955 25.424C23.7764 25.424 23.4704 25.2972 23.2448 25.0716C23.0192 24.846 22.8924 24.54 22.8924 24.2209V18.8069C22.8924 18.0092 22.5755 17.2441 22.0115 16.6801C21.4474 16.116 20.6823 15.7991 19.8846 15.7991C19.0869 15.7991 18.3219 16.116 17.7578 16.6801C17.1937 17.2441 16.8769 18.0092 16.8769 18.8069V24.2209C16.8769 24.54 16.7501 24.846 16.5245 25.0716C16.2988 25.2972 15.9928 25.424 15.6737 25.424C15.3547 25.424 15.0486 25.2972 14.823 25.0716C14.5974 24.846 14.4706 24.54 14.4706 24.2209V14.596C14.4721 14.3013 14.5817 14.0174 14.7787 13.7982C14.9756 13.5789 15.2461 13.4396 15.539 13.4066C15.8318 13.3735 16.1266 13.4492 16.3674 13.6191C16.6082 13.789 16.7782 14.0413 16.8453 14.3283C17.6592 13.7762 18.6081 13.4562 19.5901 13.4027C20.5721 13.3492 21.5502 13.5642 22.4192 14.0246C23.2883 14.485 24.0155 15.1735 24.5228 16.016C25.0301 16.8586 25.2983 17.8234 25.2986 18.8069ZM12.666 10.3851C12.666 10.742 12.5601 11.091 12.3618 11.3877C12.1635 11.6845 11.8817 11.9158 11.5519 12.0524C11.2222 12.189 10.8593 12.2247 10.5092 12.1551C10.1592 12.0855 9.8376 11.9136 9.58522 11.6612C9.33283 11.4088 9.16095 11.0873 9.09132 10.7372C9.02168 10.3871 9.05742 10.0243 9.19401 9.69449C9.3306 9.36473 9.56191 9.08288 9.85869 8.88458C10.1555 8.68629 10.5044 8.58044 10.8613 8.58044C11.3399 8.58044 11.799 8.77058 12.1374 9.10902C12.4758 9.44746 12.666 9.90648 12.666 10.3851Z" fill="#8020BB"/>
</svg>
