<svg width="35" height="34" viewBox="0 0 35 34" fill="none" xmlns="http://www.w3.org/2000/svg">
<circle cx="17.0165" cy="17.0023" r="17.0023" fill="#E2E2E2"/>
<path d="M12.1184 11.4043C11.0113 11.4043 9.92897 11.7326 9.0084 12.3477C8.08782 12.9629 7.37032 13.8371 6.94663 14.86C6.52293 15.8829 6.41208 17.0085 6.62807 18.0944C6.84407 19.1803 7.37722 20.1777 8.16011 20.9606C8.94299 21.7435 9.94045 22.2766 11.0263 22.4926C12.1122 22.7086 13.2378 22.5978 14.2607 22.1741C15.2836 21.7504 16.1578 21.0329 16.7729 20.1123C17.3881 19.1917 17.7164 18.1094 17.7164 17.0023C17.7147 15.5181 17.1244 14.0952 16.075 13.0457C15.0255 11.9962 13.6026 11.4059 12.1184 11.4043ZM12.1184 21.2007C11.2881 21.2007 10.4763 20.9545 9.78591 20.4931C9.09548 20.0318 8.55735 19.3761 8.23958 18.6089C7.92181 17.8418 7.83867 16.9976 8.00066 16.1832C8.16266 15.3688 8.56253 14.6207 9.14969 14.0335C9.73685 13.4463 10.4849 13.0465 11.2994 12.8845C12.1138 12.7225 12.958 12.8056 13.7251 13.1234C14.4923 13.4412 15.148 13.9793 15.6093 14.6697C16.0707 15.3602 16.3169 16.1719 16.3169 17.0023C16.3157 18.1154 15.873 19.1826 15.0859 19.9697C14.2988 20.7568 13.2316 21.1995 12.1184 21.2007ZM21.9148 11.4043C21.418 11.4043 20.4803 11.6457 19.7876 13.263C19.3546 14.2733 19.1159 15.6028 19.1159 17.0023C19.1159 18.4017 19.3546 19.7312 19.7876 20.7415C20.4803 22.3588 21.418 22.6002 21.9148 22.6002C22.4116 22.6002 23.3493 22.3588 24.042 20.7415C24.475 19.7312 24.7138 18.4017 24.7138 17.0023C24.7138 15.6028 24.475 14.2733 24.042 13.263C23.3493 11.6457 22.4116 11.4043 21.9148 11.4043ZM21.9148 21.2007C21.4215 21.2007 20.5153 19.607 20.5153 17.0023C20.5153 14.3975 21.4215 12.8038 21.9148 12.8038C22.4081 12.8038 23.3143 14.3975 23.3143 17.0023C23.3143 19.607 22.4081 21.2007 21.9148 21.2007ZM27.5127 12.1041V21.9004C27.5127 22.086 27.439 22.264 27.3078 22.3952C27.1766 22.5265 26.9986 22.6002 26.813 22.6002C26.6274 22.6002 26.4494 22.5265 26.3182 22.3952C26.187 22.264 26.1133 22.086 26.1133 21.9004V12.1041C26.1133 11.9185 26.187 11.7405 26.3182 11.6093C26.4494 11.4781 26.6274 11.4043 26.813 11.4043C26.9986 11.4043 27.1766 11.4781 27.3078 11.6093C27.439 11.7405 27.5127 11.9185 27.5127 12.1041Z" fill="#8020BB"/>
</svg>
